<?xml version="1.0" encoding="utf-8"?>

<svg width="800px" height="800px" viewBox="0 0 1024 1024" class="icon"  version="1.1" xmlns="http://www.w3.org/2000/svg"><path d="M902.2 886.44c0 45-170.736 81.496-381.344 81.496s-381.328-36.496-381.328-81.496c0-45.008 171.28-78.504 381.888-78.504 210.616-0.008 380.784 33.496 380.784 78.504z" fill="#B8CBCD" /><path d="M57.44 423.224L412.896 327.92l134.68 502.272-355.456 95.312z" fill="#FFFFFF" /><path d="M192.08 949.488c-4.176 0-8.32-1.096-12-3.208a24.048 24.048 0 0 1-11.176-14.568L34.24 429.448a24 24 0 0 1 16.96-29.4l355.448-95.296a23.976 23.976 0 0 1 29.4 16.96l134.664 502.264a24 24 0 0 1-16.96 29.392l-355.456 95.296a23.92 23.92 0 0 1-6.216 0.824zM86.816 440.192l122.224 455.896 309.088-82.864-122.232-455.896-309.08 82.864z" fill="#783741" /><path d="M91.528 477.496a24 24 0 0 1-8.072-46.608c66.872-23.88 134.96-41.728 207.048-60.624 48.728-12.768 99.112-25.968 149.48-41.296a24 24 0 0 1 13.968 45.92c-51.256 15.6-102.104 28.92-151.272 41.816-71.056 18.616-138.16 36.208-203.08 59.392a23.952 23.952 0 0 1-8.072 1.4z" fill="#783741" /><path d="M334.584 725.488L234.248 640.864l41.28-123.376 95.224 86.768z" fill="#FFBAB0" /><path d="M334.584 741.488c-3.728 0-7.392-1.304-10.312-3.768L223.936 653.104a16 16 0 0 1-4.856-17.312l41.28-123.376a15.984 15.984 0 0 1 25.952-6.752L381.52 592.432c4.544 4.144 6.312 10.512 4.56 16.4l-36.16 121.232a16 16 0 0 1-15.336 11.424zM252.864 635.64l73.368 61.872 26.312-88.2-69.632-63.456-30.048 89.784z" fill="#783741" /><path d="M337.424 247.928h368v520h-368z" fill="#FFFFFF" /><path d="M705.424 791.928h-368a24 24 0 0 1-24-24v-520a24 24 0 0 1 24-24h368a24 24 0 0 1 24 24v520a24 24 0 0 1-24 24z m-344-48h320v-472h-320v472z" fill="#324654" /><path d="M691.528 295.928h-341.44a24 24 0 1 1 0-48h341.448a24 24 0 1 1-0.008 48z" fill="#324654" /><path d="M516.528 538.52l14.144-14.144 14.144 14.144a44.008 44.008 0 0 0 62.224 0 44.008 44.008 0 0 0 0-62.224l-14.144-14.144-62.224-62.224-62.216 62.224-14.144 14.144a44 44 0 0 0 62.216 62.224z" fill="#B9E3ED" /><path d="M575.928 567.408a59.608 59.608 0 0 1-42.432-17.568l-2.832-2.832-2.832 2.832a59.608 59.608 0 0 1-42.432 17.568 59.576 59.576 0 0 1-42.424-17.568c-23.4-23.392-23.4-61.464 0-84.848l76.368-76.368c6-6 16.624-6 22.624 0l76.368 76.368c23.392 23.4 23.392 61.464 0 84.848a59.544 59.544 0 0 1-42.408 17.568z m-45.256-59.024c4.096 0 8.184 1.56 11.312 4.688l14.144 14.144c10.568 10.56 29.016 10.584 39.6 0a28.04 28.04 0 0 0 0-39.6l-65.056-65.056-65.056 65.064a28.032 28.032 0 0 0 0 39.592c10.584 10.584 29.032 10.56 39.6 0l14.144-14.144a15.92 15.92 0 0 1 11.312-4.688z" fill="#324654" /><path d="M617.424 591.464l-56.576-56.576-56.56 56.576z" fill="#B9E3ED" /><path d="M617.424 607.464H504.288a16 16 0 0 1-11.312-27.312l56.56-56.568c6-6 16.624-6 22.624 0l56.568 56.568a16 16 0 0 1-11.304 27.312z m-74.512-32h35.88l-17.944-17.944-17.936 17.944z" fill="#324654" /><path d="M618.08 146.432l355.488 95.2-134.52 502.32-355.488-95.2z" fill="#FFBAB0" /><path d="M839.016 767.936c-2.056 0-4.144-0.264-6.224-0.832l-355.472-95.2a23.984 23.984 0 0 1-16.968-29.384L594.88 140.216a23.976 23.976 0 0 1 29.392-16.968l355.472 95.2a23.984 23.984 0 0 1 16.968 29.392l-134.528 502.296a24.024 24.024 0 0 1-23.168 17.8zM512.92 631.752l309.104 82.792 122.12-455.928-309.104-82.8-122.12 455.936z" fill="#783741" /><path d="M618.08 146.432l355.488 95.2-134.52 502.32-355.488-95.2z" fill="#FFFFFF" /><path d="M839.016 767.936c-2.056 0-4.144-0.264-6.224-0.832l-355.472-95.2a23.984 23.984 0 0 1-16.968-29.384L594.88 140.216a23.976 23.976 0 0 1 29.392-16.968l355.472 95.2a23.984 23.984 0 0 1 16.968 29.392l-134.528 502.296a24.024 24.024 0 0 1-23.168 17.8zM512.92 631.752l309.104 82.792 122.12-455.928-309.104-82.8-122.12 455.936z" fill="#783741" /><path d="M815.2 743.192a23.984 23.984 0 0 1-23.192-30.232l115.592-431.592a26880.44 26880.44 0 0 0-142.48-37.392c-52.36-13.64-98.328-27.744-157.624-43.624a23.984 23.984 0 0 1-16.968-29.392 23.952 23.952 0 0 1 29.392-16.968c59.136 15.832 105.016 29.912 157.304 43.528a24437.416 24437.416 0 0 1 165.984 43.672 23.992 23.992 0 0 1 16.968 29.392l-121.816 454.816a23.992 23.992 0 0 1-23.16 17.792z" fill="#783741" /><path d="M755.456 404.152l-17.312 10-10-17.32a44.008 44.008 0 0 0-76.216 44.008l10.008 17.32 44 76.208 76.2-44.008 17.328-10.008a44 44 0 0 0-44.008-76.2z" fill="#FFBAB0" /><path d="M705.936 550.376a16.016 16.016 0 0 1-13.864-8l-54-93.52a59.584 59.584 0 0 1-6-45.528 59.616 59.616 0 0 1 27.952-36.44 60 60 0 0 1 29.96-8.048 60.224 60.224 0 0 1 52 29.992l2 3.472 3.464-1.992a60.056 60.056 0 0 1 29.96-8.056 60.216 60.216 0 0 1 52 30.008 59.552 59.552 0 0 1 6.008 45.52 59.648 59.648 0 0 1-27.952 36.44l-93.528 54.008a16.016 16.016 0 0 1-8 2.144z m-15.944-159.544c-4.872 0-9.696 1.296-13.952 3.76a27.816 27.816 0 0 0-13.056 17.008 27.816 27.816 0 0 0 2.808 21.24l46.008 79.672 79.672-46.008a27.848 27.848 0 0 0 13.04-17.008 27.792 27.792 0 0 0-2.8-21.232 28.128 28.128 0 0 0-24.296-14.016 27.92 27.92 0 0 0-13.96 3.768l-17.312 9.992a16.016 16.016 0 0 1-21.864-5.856l-10-17.32a28.12 28.12 0 0 0-24.288-14z" fill="#783741" /></svg>