<?xml version="1.0" encoding="utf-8"?>
<!-- Uploaded to: SVG Repo, www.svgrepo.com, Generator: SVG Repo Mixer Tools -->
<svg width="800px" height="800px" viewBox="0 -251.5 1527 1527" class="icon"  version="1.1" xmlns="http://www.w3.org/2000/svg"><path d="M132.887828 44.295943h1267.78043v819.627685H132.887828z" fill="#FFFFFF" /><path d="M440.210024 409.355609s192.763723-179.322196 322.596659-179.322196 340.009547 187.264916 340.009546 187.264916-261.498807 173.823389-324.429594 179.627685-314.653938-168.019093-338.176611-187.570405z" fill="#EA5D5C" /><path d="M773.498807 421.26969m-40.019093 0a40.019093 40.019093 0 1 0 80.038186 0 40.019093 40.019093 0 1 0-80.038186 0Z" fill="#FFFFFF" /><path d="M39.102625 815.961814h1447.408115v156.71599H39.102625z" fill="#4C66AF" /><path d="M1435.799523 779.608592V91.646778a91.646778 91.646778 0 0 0-91.646778-91.646778H183.293556a91.646778 91.646778 0 0 0-91.646778 91.646778v687.961814H0v152.74463a91.646778 91.646778 0 0 0 91.646778 91.646778h1344.152745a91.646778 91.646778 0 0 0 91.646778-91.646778v-152.74463h-91.646778zM152.74463 91.952267a30.548926 30.548926 0 0 1 30.548926-30.548926h1160.859189a30.548926 30.548926 0 0 1 30.548926 30.548926v687.656325H152.74463V91.646778z m1313.603819 840.400955a30.548926 30.548926 0 0 1-30.548926 30.548926H91.646778a30.548926 30.548926 0 0 1-30.548926-30.548926v-91.646778h1405.250597v91.646778z" fill="#3F4651" /><path d="M549.880668 841.011933h427.684964v61.097852H549.880668zM775.331742 197.651551c-162.520286 0-349.785203 183.293556-357.727923 192.152745l-21.689738 21.689737 21.689738 21.689738c7.942721 7.942721 194.902148 192.152745 357.727923 192.152745s349.785203-183.293556 357.727924-192.152745l21.689737-21.689738-21.689737-21.689737c-8.24821-7.942721-195.207637-192.152745-357.727924-192.152745z m0 366.587112c-107.53222 0-238.587112-106.004773-291.131265-152.74463 52.544153-46.739857 183.293556-152.74463 291.131265-152.74463s238.587112 106.004773 291.131265 152.74463c-52.849642 46.739857-183.599045 152.74463-291.131265 152.74463z" fill="#3F4651" /><path d="M685.5179 419.131265a87.980907 87.980907 0 1 0 87.980907-87.675418 87.980907 87.980907 0 0 0-87.980907 87.675418z m114.558472 0a26.883055 26.883055 0 1 1-26.577565-26.577566 26.883055 26.883055 0 0 1 26.272076 26.577566z" fill="#3F4651" /></svg>